<svg width="25" height="25" viewBox="0 0 25 25" fill="none" xmlns="http://www.w3.org/2000/svg">
<path d="M0.390419 0H1.56251V0.373336C3.19419 0.738338 3.42877 2.25293 3.52086 2.83168C3.56461 3.10544 3.65336 3.64086 3.76336 4.29669H24.1718C24.9793 4.29669 25.0697 5.05128 24.9643 5.46878L22.5701 16.0384C22.4651 16.4559 22.0231 16.7968 21.5897 16.7968H3.69627C3.26544 16.7968 2.91418 17.1472 2.91418 17.578C2.91418 18.0089 3.26544 18.3593 3.69627 18.3593H23.2272C23.4344 18.3593 23.6331 18.4416 23.7797 18.5881C23.9262 18.7346 24.0085 18.9333 24.0085 19.1405C24.0085 19.3477 23.9262 19.5465 23.7797 19.693C23.6331 19.8395 23.4344 19.9218 23.2272 19.9218H22.2147C22.7036 20.1917 23.1111 20.5878 23.3949 21.0687C23.6787 21.5497 23.8282 22.098 23.8281 22.6564H23.0468C23.0468 23.9502 21.9968 25.0002 20.703 25.0002C19.4093 25.0002 18.3593 23.9502 18.3593 22.6564H17.578C17.5779 22.0979 17.7276 21.5497 18.0114 21.0687C18.2953 20.5877 18.7029 20.1917 19.1918 19.9218H8.15255C8.64148 20.1917 9.04909 20.5877 9.33292 21.0687C9.61674 21.5497 9.76641 22.0979 9.76631 22.6564H8.98506C8.97348 23.2705 8.72141 23.8555 8.28306 24.2856C7.8447 24.7158 7.25505 24.9568 6.64087 24.9568C6.0267 24.9568 5.43705 24.7158 4.9987 24.2856C4.56034 23.8555 4.30827 23.2705 4.29669 22.6564H3.51544C3.51539 22.098 3.66503 21.5498 3.94877 21.0688C4.23252 20.5879 4.63999 20.1918 5.12878 19.9218H3.69544C3.07394 19.9215 2.47798 19.6744 2.03852 19.235C1.59904 18.7955 1.35201 18.1995 1.35168 17.578C1.35173 17.2702 1.41242 16.9654 1.53028 16.681C1.64813 16.3966 1.82085 16.1382 2.03856 15.9206C2.25628 15.7029 2.51473 15.5303 2.79916 15.4125C3.08359 15.2948 3.38843 15.2342 3.69627 15.2343H3.98669L2.98752 9.02172C2.70918 7.38088 2.10918 3.83627 1.96835 2.9546C1.89751 2.50918 1.82876 2.19626 1.56251 2.02085V2.34335H0.390419C0.287048 2.34302 0.187996 2.30184 0.114862 2.22878C0.0417271 2.15572 0.000440598 2.05672 0 1.95335V0.390836C0.000221252 0.287319 0.0414104 0.188099 0.114569 0.114863C0.187727 0.0416266 0.286903 0.000330139 0.390419 0ZM20.703 23.8285C21.0138 23.8282 21.3117 23.7046 21.5315 23.4848C21.7512 23.2651 21.8748 22.9671 21.8751 22.6564H19.5314C19.5317 22.9671 19.6552 23.2649 19.8749 23.4847C20.0945 23.7044 20.3924 23.828 20.703 23.8285ZM6.64046 23.8285C6.95129 23.8283 7.24933 23.7047 7.46916 23.485C7.68898 23.2652 7.81264 22.9672 7.81297 22.6564H5.46837C5.46892 22.9671 5.59258 23.2649 5.81227 23.4846C6.03196 23.7043 6.32977 23.8279 6.64046 23.8285ZM7.60172 6.24754C7.58796 6.14164 7.53666 6.0442 7.45713 5.97293C7.37761 5.90166 7.27514 5.86131 7.16838 5.8592H4.69461C4.47961 5.8592 4.33003 6.03254 4.36378 6.24546L4.60878 7.81672C4.64128 8.02922 4.84503 8.20297 5.06045 8.20297H7.42005C7.46973 8.20428 7.51912 8.19482 7.5648 8.17523C7.61048 8.15564 7.65138 8.12639 7.68468 8.08949C7.71798 8.05259 7.74289 8.00891 7.7577 7.96146C7.7725 7.91402 7.77686 7.86392 7.77047 7.81463L7.60172 6.24754ZM8.02213 10.1538C8.00814 10.048 7.95676 9.95072 7.87729 9.8795C7.79781 9.80828 7.69549 9.76784 7.5888 9.76548H5.3042C5.08878 9.76548 4.93962 9.93881 4.97211 10.1517L5.1567 11.3326C5.18962 11.5451 5.39295 11.7188 5.60837 11.7188H7.7988C7.84845 11.72 7.89776 11.7104 7.94338 11.6908C7.98899 11.6712 8.02983 11.6419 8.0631 11.605C8.09637 11.5682 8.12129 11.5246 8.13615 11.4772C8.15101 11.4298 8.15547 11.3798 8.14922 11.3305L8.02213 10.1538ZM22.9726 7.8238L23.3685 6.23837C23.4201 6.0292 23.286 5.8592 23.0706 5.8592H20.1293C19.9135 5.8592 19.7189 6.03379 19.696 6.24754L19.5276 7.81505C19.5214 7.86428 19.5258 7.91428 19.5407 7.96163C19.5555 8.00899 19.5804 8.05258 19.6136 8.08945C19.6468 8.12631 19.6876 8.15557 19.7332 8.17523C19.7787 8.1949 19.828 8.2045 19.8776 8.20339H22.4864C22.7014 8.20339 22.9206 8.03213 22.9726 7.8238ZM21.6097 11.7188C21.8247 11.7188 22.0439 11.548 22.0956 11.3397L22.3939 10.1451C22.446 9.9359 22.3126 9.76589 22.0972 9.76589H19.7101C19.4947 9.76589 19.2997 9.94048 19.2768 10.1542L19.1501 11.3309C19.1438 11.3801 19.1482 11.4302 19.163 11.4776C19.1778 11.5249 19.2027 11.5686 19.2359 11.6055C19.2692 11.6423 19.31 11.6716 19.3556 11.6912C19.4012 11.7109 19.4505 11.7204 19.5001 11.7192H21.6097V11.7188ZM19.1226 15.2347H20.733C20.9493 15.2347 21.1672 15.0638 21.2193 14.8555L21.5176 13.6609C21.5693 13.4518 21.436 13.2818 21.2201 13.2818H19.3326C19.1172 13.2818 18.9222 13.4563 18.8985 13.6701L18.7726 14.8468C18.7663 14.896 18.7707 14.946 18.7855 14.9934C18.8003 15.0407 18.8252 15.0843 18.8584 15.1212C18.8917 15.158 18.9325 15.1872 18.9781 15.2068C19.0237 15.2264 19.073 15.2359 19.1226 15.2347ZM14.3343 14.8438C14.3347 14.9475 14.3761 15.0468 14.4495 15.12C14.5229 15.1932 14.6223 15.2345 14.7259 15.2347H16.7639C16.8705 15.2325 16.9729 15.1921 17.0524 15.1208C17.1318 15.0496 17.183 14.9522 17.1968 14.8463L17.3234 13.6697C17.3299 13.6204 17.3256 13.5704 17.3109 13.523C17.2961 13.4756 17.2713 13.4319 17.2381 13.395C17.2049 13.3581 17.164 13.3288 17.1184 13.3092C17.0728 13.2896 17.0235 13.2801 16.9739 13.2813H14.7259C14.6222 13.2813 14.5227 13.3225 14.4493 13.3958C14.3758 13.469 14.3345 13.5684 14.3343 13.6722V14.8438ZM14.3343 11.3284C14.3347 11.4321 14.3761 11.5314 14.4495 11.6046C14.5229 11.6778 14.6223 11.719 14.7259 11.7192H17.1418C17.3568 11.7192 17.5509 11.5447 17.5751 11.3309L17.7009 10.1542C17.7073 10.105 17.703 10.055 17.6882 10.0076C17.6735 9.96022 17.6486 9.91659 17.6154 9.8797C17.5822 9.84281 17.5414 9.81354 17.4958 9.7939C17.4503 9.77425 17.401 9.7647 17.3514 9.76589H14.7259C14.6222 9.76589 14.5227 9.80705 14.4493 9.88032C14.3758 9.95359 14.3345 10.053 14.3343 10.1567V11.3284ZM14.3343 7.81255C14.3347 7.91621 14.3761 8.0155 14.4495 8.08872C14.5229 8.16195 14.6223 8.20317 14.7259 8.20339H17.5184C17.6252 8.20128 17.7277 8.16092 17.8072 8.08966C17.8867 8.01839 17.938 7.92095 17.9518 7.81505L18.1201 6.24754C18.1264 6.1983 18.122 6.14827 18.1072 6.10088C18.0924 6.0535 18.0675 6.00987 18.0343 5.97299C18.0011 5.93612 17.9602 5.90685 17.9146 5.88721C17.869 5.86757 17.8197 5.85802 17.7701 5.8592H14.7255C14.6218 5.8592 14.5223 5.90035 14.4489 5.97363C14.3754 6.0469 14.3341 6.14631 14.3338 6.25004V7.81255H14.3343ZM10.1013 14.8463C10.1151 14.9522 10.1665 15.0496 10.246 15.1209C10.3255 15.1921 10.4279 15.2325 10.5347 15.2347H12.3763C12.48 15.2345 12.5793 15.1932 12.6526 15.12C12.7259 15.0468 12.7673 14.9475 12.7676 14.8438V13.6718C12.7674 13.5681 12.7261 13.4687 12.6527 13.3955C12.5794 13.3222 12.48 13.281 12.3763 13.2809H10.3246C10.1096 13.2809 9.95131 13.4555 9.97465 13.6693L10.1013 14.8463ZM9.72381 11.3305C9.73765 11.4364 9.78897 11.5337 9.86848 11.605C9.94799 11.6762 10.0504 11.7166 10.1571 11.7188H12.3763C12.48 11.7186 12.5793 11.6774 12.6526 11.6041C12.7259 11.5309 12.7673 11.4316 12.7676 11.328V10.1559C12.7674 10.0522 12.7261 9.95289 12.6527 9.87963C12.5794 9.80637 12.48 9.76517 12.3763 9.76506H9.94715C9.73173 9.76506 9.57381 9.93965 9.59756 10.1534L9.72381 11.3305ZM9.34631 7.81505C9.36014 7.92091 9.41147 8.01831 9.49098 8.08956C9.57049 8.16081 9.6729 8.20119 9.77965 8.20339H12.3763C12.48 8.20317 12.5793 8.16193 12.6526 8.08869C12.7259 8.01546 12.7673 7.91618 12.7676 7.81255V6.25004C12.7674 6.14638 12.7261 6.04703 12.6527 5.97377C12.5794 5.90051 12.48 5.85931 12.3763 5.8592H9.52756C9.31214 5.8592 9.15423 6.03379 9.17714 6.24754L9.34631 7.81505ZM6.33296 15.2347V15.2318L6.33629 15.2347H8.1763C8.18839 15.2347 8.1988 15.2288 8.21089 15.2272C8.21297 15.213 8.21297 15.1988 8.21547 15.1838L8.2338 15.2222C8.22872 15.2235 8.22357 15.2246 8.21839 15.2255C8.41047 15.2034 8.54797 15.0447 8.52589 14.8463L8.40005 13.6697C8.38606 13.5639 8.33468 13.4666 8.25521 13.3954C8.17573 13.3241 8.07341 13.2837 7.96672 13.2813H5.8517C5.63629 13.2813 5.48795 13.4547 5.52045 13.6676L5.70504 14.8484C5.73712 15.0609 5.94045 15.2347 6.15587 15.2347H6.33296Z" fill="white"/>
</svg>
