<svg width="32" height="32" viewBox="0 0 32 32" fill="none" xmlns="http://www.w3.org/2000/svg">
<circle cx="16" cy="16" r="16" fill="#2AC9AD"/>
<g clip-path="url(#clip0_36_8)">
<path d="M26.0005 16.0615C26.0005 10.504 21.523 5.99902 16.0005 5.99902C10.4755 6.00027 5.99799 10.504 5.99799 16.0628C5.99799 21.084 9.65549 25.2465 14.4355 26.0015V18.9703H11.898V16.0628H14.438V13.844C14.438 11.3228 15.9317 9.93027 18.2155 9.93027C19.3105 9.93027 20.4542 10.1265 20.4542 10.1265V12.6015H19.193C17.9517 12.6015 17.5642 13.3778 17.5642 14.174V16.0615H20.3367L19.8942 18.969H17.563V26.0003C22.343 25.2453 26.0005 21.0828 26.0005 16.0615Z" fill="#FAFAFA"/>
</g>
<defs>
<clipPath id="clip0_36_8">
<rect width="20" height="20" fill="white" transform="translate(6 6)"/>
</clipPath>
</defs>
</svg>
