<svg width="66" height="60" viewBox="0 0 66 60" fill="none" xmlns="http://www.w3.org/2000/svg">
<path d="M32.856 15.1729C32.856 15.1729 20.556 16.0455 14.116 12.2214C7.67595 8.39448 9.14395 1.08569 9.14395 1.08569C9.14395 1.08569 21.444 0.213081 27.888 4.03715C34.328 7.86407 32.856 15.1729 32.856 15.1729V15.1729Z" stroke="black" stroke-width="2" stroke-linecap="round" stroke-linejoin="round"/>
<path d="M33.1439 15.1729C33.1439 15.1729 45.4439 16.0455 51.8839 12.2214C58.3239 8.39448 56.8559 1.08569 56.8559 1.08569C56.8559 1.08569 44.5559 0.213081 38.1159 4.03715C31.6759 7.86407 33.1439 15.1729 33.1439 15.1729V15.1729Z" stroke="black" stroke-width="2" stroke-linecap="round" stroke-linejoin="round"/>
<path d="M1 26.6649C1 25.9086 1.42143 25.1833 2.17157 24.6485C2.92172 24.1137 3.93913 23.8132 5 23.8132H61C62.0609 23.8132 63.0783 24.1137 63.8284 24.6485C64.5786 25.1833 65 25.9086 65 26.6649V32.3682C65 33.1245 64.5786 33.8498 63.8284 34.3846C63.0783 34.9194 62.0609 35.2198 61 35.2198H5C3.93913 35.2198 2.92172 34.9194 2.17157 34.3846C1.42143 33.8498 1 33.1245 1 32.3682V26.6649Z" stroke="black" stroke-width="2" stroke-linecap="round" stroke-linejoin="round"/>
<path d="M5 35.2198H61L53 58.0328H13L5 35.2198Z" stroke="black" stroke-width="2" stroke-linecap="round" stroke-linejoin="round"/>
</svg>
