<svg xmlns="http://www.w3.org/2000/svg" width="567" viewBox="0 0 567 425.25" height="425.25" version="1.0"><defs><clipPath id="a"><path d="M 148 145.269531 L 234.777344 145.269531 L 234.777344 242.597656 L 148 242.597656 Z M 148 145.269531"/></clipPath></defs><g clip-path="url(#a)"><path d="M 234.28125 168.1875 C 228.265625 168.078125 222.546875 169.722656 217.6875 173.386719 C 215.257812 175.21875 213.277344 177.574219 210.773438 179.292969 C 208.71875 180.714844 206.0625 181.011719 204.121094 182.507812 C 202.476562 183.78125 201.726562 185.910156 201.09375 187.820312 C 199.785156 191.820312 199.035156 194.734375 196.382812 198.136719 C 195.933594 198.738281 195.558594 199.296875 195.222656 199.859375 C 197.203125 194.847656 199.074219 189.089844 198.847656 183.667969 C 198.8125 182.398438 198.476562 181.386719 198.328125 180.117188 C 197.839844 176.789062 198.140625 174.507812 198.511719 171.292969 C 198.738281 169.160156 198.925781 167.179688 198.402344 165.046875 C 197.242188 160.484375 193.878906 157.832031 189.992188 155.585938 C 187.039062 153.90625 184.347656 152.296875 181.84375 149.941406 C 180.011719 148.222656 178.402344 146.578125 176.199219 145.269531 C 175.898438 145.117188 175.527344 145.378906 175.636719 145.714844 C 177.097656 150.613281 177.171875 155.027344 175.789062 159.925781 C 175.039062 162.578125 173.84375 165.195312 173.65625 168 C 173.285156 173.421875 176.871094 176.601562 179.449219 180.9375 C 181.207031 183.929688 180.757812 187.070312 180.648438 190.136719 C 179.789062 189.164062 179.078125 189.089844 177.65625 188.714844 C 175.414062 189.089844 173.246094 188.640625 171.191406 187.296875 C 170.742188 186.847656 170.292969 186.398438 169.882812 185.910156 C 168.761719 184.902344 168.011719 183.519531 166.78125 182.582031 C 165.097656 181.273438 163.339844 180.863281 161.25 180.640625 C 156.914062 180.152344 152.765625 180.003906 148.539062 178.808594 C 148.128906 178.695312 147.90625 179.257812 148.242188 179.519531 C 150.707031 181.164062 153.023438 182.808594 154.109375 185.835938 C 154.746094 187.667969 154.632812 189.6875 154.96875 191.59375 C 155.230469 193.089844 155.566406 194.585938 156.425781 195.859375 C 158.96875 199.523438 163.902344 199.558594 167.566406 201.277344 C 170.628906 202.738281 170.964844 204.308594 172.273438 207.261719 C 172.425781 207.636719 172.386719 208.347656 172.6875 208.644531 C 173.507812 209.65625 174.070312 209.730469 175.191406 210.140625 C 177.542969 211.074219 180.421875 210.738281 182.890625 211.5625 C 186.738281 212.796875 190.027344 214.925781 192.945312 217.695312 C 190.886719 217.695312 188.871094 217.65625 186.8125 217.65625 C 186.328125 217.65625 186.328125 218.402344 186.8125 218.402344 C 189.878906 218.441406 192.945312 218.441406 195.972656 218.480469 C 198.363281 218.480469 203.296875 217.507812 204.566406 219.976562 C 205.351562 221.507812 203.820312 227.152344 203.632812 229.023438 C 203.222656 232.875 203.632812 238.933594 199.222656 240.875 C 196.269531 242.183594 190.703125 241.511719 187.671875 241.027344 C 183 240.277344 181.769531 237.4375 181.320312 232.910156 C 181.019531 229.957031 180.910156 227.003906 180.910156 224.050781 C 180.910156 219.976562 181.171875 217.394531 185.84375 217.394531 C 186.328125 217.394531 186.328125 216.648438 185.84375 216.648438 C 184.570312 216.648438 181.65625 216.011719 180.648438 217.019531 C 179.1875 218.480469 180.125 224.796875 180.160156 226.742188 C 180.273438 231.714844 179.1875 239.640625 184.945312 241.289062 C 189.132812 242.484375 199.558594 244.015625 202.625 239.867188 C 203.96875 238.035156 203.785156 234.742188 203.96875 232.6875 C 204.492188 227.863281 204.980469 223.039062 205.503906 218.21875 C 205.539062 217.992188 205.316406 217.84375 205.128906 217.84375 C 201.316406 217.804688 197.503906 217.804688 193.691406 217.769531 C 193.765625 217.65625 193.730469 217.507812 193.617188 217.355469 C 190.964844 214.851562 188.011719 212.796875 184.570312 211.449219 C 182.589844 210.664062 180.648438 210.402344 178.589844 209.878906 C 175.976562 209.207031 174.292969 207.523438 172.722656 205.355469 C 171.226562 203.296875 170.480469 201.804688 167.902344 200.605469 C 161.957031 197.875 156.652344 198.25 155.53125 190.175781 C 155.117188 187.296875 154.855469 184.601562 152.875 182.320312 C 152.242188 181.613281 150.371094 179.816406 149.921875 180.078125 C 150.519531 179.742188 154.109375 180.9375 154.929688 181.050781 C 157.734375 181.425781 160.464844 181.273438 163.230469 182.023438 C 166.40625 182.882812 167.566406 184.828125 169.734375 187.035156 C 170.59375 187.894531 171.527344 188.867188 172.6875 189.3125 C 174.929688 190.175781 178.628906 188.867188 180.234375 190.921875 C 180.308594 191.035156 180.460938 191.070312 180.570312 191.070312 C 180.535156 193.277344 180.796875 195.445312 182.328125 197.503906 C 184.273438 200.082031 186.890625 202.214844 188.871094 204.792969 C 190.589844 207 192.085938 209.316406 193.429688 211.75 C 193.542969 213.246094 193.652344 214.703125 193.765625 216.199219 C 193.804688 216.683594 194.550781 216.683594 194.515625 216.199219 C 194.4375 215.261719 194.402344 214.328125 194.328125 213.394531 L 195 214.738281 C 195.113281 214.964844 195.335938 214.964844 195.484375 214.890625 C 195.375 215.1875 195.261719 215.449219 195.1875 215.75 C 195 216.199219 195.746094 216.421875 195.933594 215.9375 C 198.289062 209.617188 200.867188 203.335938 204.53125 197.613281 C 205.089844 196.71875 205.691406 195.859375 206.324219 194.996094 C 206.472656 195.109375 206.660156 195.148438 206.8125 194.996094 C 209.390625 192.679688 211.519531 190.210938 213.390625 187.296875 C 213.652344 186.921875 213.089844 186.546875 212.792969 186.847656 C 204.382812 194.210938 199.558594 204.121094 195.671875 214.402344 L 195.671875 214.367188 C 195.1875 213.394531 194.699219 212.460938 194.175781 211.523438 C 193.578125 203.972656 192.644531 196.457031 191.300781 189.015625 C 189.917969 181.351562 188.046875 173.945312 183.375 167.554688 C 183.226562 167.328125 182.925781 167.367188 182.777344 167.476562 C 182.664062 167.253906 182.554688 167.027344 182.402344 166.804688 C 182.664062 167.214844 183.339844 166.84375 183.078125 166.429688 C 183.039062 166.394531 183 166.355469 183 166.28125 C 182.890625 166.132812 182.738281 166.058594 182.554688 166.09375 C 182.476562 166.09375 182.441406 166.132812 182.367188 166.132812 C 182.179688 166.167969 182.105469 166.355469 182.105469 166.503906 C 181.804688 168.785156 183.261719 171.890625 184.121094 173.984375 C 185.320312 176.902344 186.925781 179.554688 188.832031 182.058594 C 188.90625 182.171875 189.019531 182.210938 189.09375 182.210938 C 189.691406 184.492188 190.140625 186.847656 190.589844 189.164062 C 191.824219 196.042969 192.683594 202.960938 193.316406 209.917969 C 191.597656 207 189.617188 204.195312 187.375 201.652344 C 186.476562 200.605469 185.46875 199.671875 184.535156 198.660156 C 181.84375 195.746094 181.582031 193.425781 181.65625 189.425781 C 181.695312 187.667969 182.179688 186.097656 181.769531 184.339844 C 180.832031 180.117188 177.058594 177.425781 175.453125 173.574219 C 172.722656 167.027344 177.058594 161.234375 177.542969 154.726562 C 177.621094 153.644531 176.460938 147.773438 176.910156 147.25 C 177.804688 146.238281 181.058594 150.277344 182.367188 151.476562 C 186.253906 154.953125 191.636719 156.449219 195.113281 160.410156 C 200.082031 166.09375 196.605469 172.789062 197.464844 179.367188 C 198.4375 186.808594 197.09375 193.351562 194.289062 200.308594 C 194.140625 200.679688 194.550781 200.867188 194.851562 200.71875 C 193.207031 204.308594 193.839844 207.785156 195.261719 212.085938 C 195.410156 212.535156 196.160156 212.347656 196.007812 211.898438 C 194.402344 207.039062 193.839844 203.113281 197.019531 198.660156 C 198.214844 196.980469 199.484375 195.671875 200.269531 193.652344 C 200.980469 191.820312 201.316406 189.875 201.914062 188.003906 C 203.261719 183.890625 205.054688 183.105469 208.605469 181.5 C 212.828125 179.59375 215.667969 175.667969 219.480469 173.125 C 222.097656 171.367188 225.089844 170.09375 228.152344 169.460938 C 228.863281 169.308594 232.601562 168.488281 232.898438 169.160156 C 233.085938 169.570312 230.917969 171.367188 230.730469 171.554688 C 227.480469 174.917969 226.058594 178.171875 225.050781 182.695312 C 224.191406 186.511719 222.660156 189.5 219.144531 191.484375 C 217.238281 192.566406 214.847656 192.753906 213.128906 194.101562 C 210.136719 196.457031 211.484375 200.492188 210.398438 203.746094 C 208.378906 209.917969 201.09375 211.300781 196.679688 215.375 C 196.308594 215.710938 196.867188 216.234375 197.203125 215.898438 C 200.941406 212.460938 206.4375 211.113281 209.652344 207.113281 C 210.773438 205.730469 211.371094 204.34375 211.632812 202.589844 C 211.820312 201.355469 211.484375 200.007812 211.78125 198.8125 C 213.015625 193.503906 215.035156 194.175781 218.210938 192.753906 C 221.199219 191.40625 223.78125 189.128906 225.011719 186.023438 C 226.210938 183.03125 225.984375 179.78125 227.554688 176.863281 C 229.273438 173.683594 232.039062 171.179688 234.695312 168.785156 C 234.804688 168.636719 234.582031 168.226562 234.28125 168.1875 Z M 210.960938 189.574219 C 211.484375 189.015625 211.894531 188.566406 212.042969 188.417969 C 211.855469 188.640625 211.183594 189.390625 209.839844 190.960938 C 209.242188 191.632812 208.640625 192.304688 207.96875 192.941406 C 208.941406 191.78125 209.949219 190.660156 210.960938 189.574219 Z M 185.394531 175.144531 C 184.535156 173.273438 184.121094 170.917969 183.375 168.898438 C 185.84375 172.527344 187.449219 176.488281 188.609375 180.601562 C 187.414062 178.882812 186.328125 177.085938 185.394531 175.144531 Z M 178.144531 200.867188 C 175.714844 198.738281 173.207031 196.566406 170.441406 194.886719 C 170.78125 195.183594 170.40625 195.820312 170.03125 195.519531 C 168.722656 194.550781 167.378906 193.578125 166.070312 192.640625 C 165.660156 192.34375 165.996094 191.78125 166.445312 191.96875 C 172.199219 194.511719 176.722656 198.585938 181.355469 202.738281 C 185.429688 206.402344 191.375 210.105469 193.46875 215.375 C 193.652344 215.824219 192.90625 216.011719 192.71875 215.5625 C 190.476562 209.878906 182.628906 204.792969 178.144531 200.867188 Z M 178.144531 200.867188"/></g><g><g><g><path d="M 0.28125 -6.71875 L 4.6875 -6.71875 L 4.6875 -6.0625 L 2.859375 -6.0625 L 2.859375 0 L 2.109375 0 L 2.109375 -6.0625 L 0.28125 -6.0625 Z M 0.28125 -6.71875" transform="translate(265.432 239.967)"/></g></g></g><g><g><g><path d="M 1.59375 -6.71875 L 1.59375 0 L 0.859375 0 L 0.859375 -6.71875 Z M 1.59375 -6.71875" transform="translate(273.996 239.967)"/></g></g></g><g><g><g><path d="M 0.859375 -6.71875 L 4.5625 -6.71875 L 4.5625 -6.0625 L 1.59375 -6.0625 L 1.59375 -3.765625 L 4.125 -3.765625 L 4.125 -3.09375 L 1.59375 -3.09375 L 1.59375 -0.671875 L 4.5625 -0.671875 L 4.5625 0 L 0.859375 0 Z M 0.859375 -6.71875" transform="translate(280.034 239.967)"/></g></g></g><g><g><g><path d="M 4.546875 -6.71875 L 5.28125 -6.71875 L 5.28125 0 L 4.546875 0 L 1.59375 -5.390625 L 1.59375 0 L 0.859375 0 L 0.859375 -6.71875 L 1.59375 -6.71875 L 4.546875 -1.328125 Z M 4.546875 -6.71875" transform="translate(288.844 239.967)"/></g></g></g><g><g><g><path d="M 1.59375 -6.0625 L 1.59375 -0.671875 L 2.5625 -0.671875 C 2.71875 -0.671875 2.84375 -0.671875 2.9375 -0.671875 C 3.03125 -0.671875 3.144531 -0.679688 3.28125 -0.703125 C 3.425781 -0.734375 3.539062 -0.773438 3.625 -0.828125 C 3.738281 -0.890625 3.835938 -0.96875 3.921875 -1.0625 C 4.003906 -1.15625 4.070312 -1.25 4.125 -1.34375 C 4.1875 -1.4375 4.234375 -1.554688 4.265625 -1.703125 C 4.304688 -1.847656 4.335938 -1.972656 4.359375 -2.078125 C 4.378906 -2.179688 4.390625 -2.320312 4.390625 -2.5 C 4.398438 -2.675781 4.40625 -2.816406 4.40625 -2.921875 C 4.414062 -3.023438 4.421875 -3.171875 4.421875 -3.359375 C 4.421875 -3.554688 4.414062 -3.703125 4.40625 -3.796875 C 4.40625 -3.898438 4.398438 -4.039062 4.390625 -4.21875 C 4.390625 -4.394531 4.378906 -4.535156 4.359375 -4.640625 C 4.335938 -4.742188 4.304688 -4.867188 4.265625 -5.015625 C 4.234375 -5.160156 4.1875 -5.28125 4.125 -5.375 C 4.070312 -5.46875 4.003906 -5.5625 3.921875 -5.65625 C 3.835938 -5.75 3.738281 -5.828125 3.625 -5.890625 C 3.539062 -5.941406 3.425781 -5.976562 3.28125 -6 C 3.144531 -6.03125 3.03125 -6.046875 2.9375 -6.046875 C 2.84375 -6.054688 2.71875 -6.0625 2.5625 -6.0625 Z M 0.859375 -6.71875 L 2.5625 -6.71875 C 3.03125 -6.71875 3.390625 -6.679688 3.640625 -6.609375 C 3.929688 -6.523438 4.179688 -6.378906 4.390625 -6.171875 C 4.597656 -5.972656 4.757812 -5.742188 4.875 -5.484375 C 4.957031 -5.285156 5.019531 -5.050781 5.0625 -4.78125 C 5.113281 -4.507812 5.140625 -4.28125 5.140625 -4.09375 C 5.148438 -3.914062 5.15625 -3.671875 5.15625 -3.359375 C 5.15625 -3.046875 5.148438 -2.796875 5.140625 -2.609375 C 5.140625 -2.429688 5.113281 -2.207031 5.0625 -1.9375 C 5.019531 -1.664062 4.957031 -1.429688 4.875 -1.234375 C 4.757812 -0.972656 4.597656 -0.738281 4.390625 -0.53125 C 4.179688 -0.332031 3.929688 -0.191406 3.640625 -0.109375 C 3.390625 -0.0351562 3.03125 0 2.5625 0 L 0.859375 0 Z M 0.859375 -6.71875" transform="translate(298.576 239.967)"/></g></g></g><g><g><g><path d="M 3.9375 -2.28125 L 2.828125 -5.71875 L 1.703125 -2.28125 Z M 2.46875 -6.71875 L 3.171875 -6.71875 L 5.453125 0 L 4.6875 0 L 4.15625 -1.625 L 1.484375 -1.625 L 0.96875 0 L 0.1875 0 Z M 2.46875 -6.71875" transform="translate(307.941 239.967)"/></g></g></g><g><g><g><path d="M 1.59375 -6.0625 L 1.59375 -0.671875 L 2.5625 -0.671875 C 2.71875 -0.671875 2.84375 -0.671875 2.9375 -0.671875 C 3.03125 -0.671875 3.144531 -0.679688 3.28125 -0.703125 C 3.425781 -0.734375 3.539062 -0.773438 3.625 -0.828125 C 3.738281 -0.890625 3.835938 -0.96875 3.921875 -1.0625 C 4.003906 -1.15625 4.070312 -1.25 4.125 -1.34375 C 4.1875 -1.4375 4.234375 -1.554688 4.265625 -1.703125 C 4.304688 -1.847656 4.335938 -1.972656 4.359375 -2.078125 C 4.378906 -2.179688 4.390625 -2.320312 4.390625 -2.5 C 4.398438 -2.675781 4.40625 -2.816406 4.40625 -2.921875 C 4.414062 -3.023438 4.421875 -3.171875 4.421875 -3.359375 C 4.421875 -3.554688 4.414062 -3.703125 4.40625 -3.796875 C 4.40625 -3.898438 4.398438 -4.039062 4.390625 -4.21875 C 4.390625 -4.394531 4.378906 -4.535156 4.359375 -4.640625 C 4.335938 -4.742188 4.304688 -4.867188 4.265625 -5.015625 C 4.234375 -5.160156 4.1875 -5.28125 4.125 -5.375 C 4.070312 -5.46875 4.003906 -5.5625 3.921875 -5.65625 C 3.835938 -5.75 3.738281 -5.828125 3.625 -5.890625 C 3.539062 -5.941406 3.425781 -5.976562 3.28125 -6 C 3.144531 -6.03125 3.03125 -6.046875 2.9375 -6.046875 C 2.84375 -6.054688 2.71875 -6.0625 2.5625 -6.0625 Z M 0.859375 -6.71875 L 2.5625 -6.71875 C 3.03125 -6.71875 3.390625 -6.679688 3.640625 -6.609375 C 3.929688 -6.523438 4.179688 -6.378906 4.390625 -6.171875 C 4.597656 -5.972656 4.757812 -5.742188 4.875 -5.484375 C 4.957031 -5.285156 5.019531 -5.050781 5.0625 -4.78125 C 5.113281 -4.507812 5.140625 -4.28125 5.140625 -4.09375 C 5.148438 -3.914062 5.15625 -3.671875 5.15625 -3.359375 C 5.15625 -3.046875 5.148438 -2.796875 5.140625 -2.609375 C 5.140625 -2.429688 5.113281 -2.207031 5.0625 -1.9375 C 5.019531 -1.664062 4.957031 -1.429688 4.875 -1.234375 C 4.757812 -0.972656 4.597656 -0.738281 4.390625 -0.53125 C 4.179688 -0.332031 3.929688 -0.191406 3.640625 -0.109375 C 3.390625 -0.0351562 3.03125 0 2.5625 0 L 0.859375 0 Z M 0.859375 -6.71875" transform="translate(323.568 239.967)"/></g></g></g><g><g><g><path d="M 0.859375 -6.71875 L 4.5625 -6.71875 L 4.5625 -6.0625 L 1.59375 -6.0625 L 1.59375 -3.765625 L 4.125 -3.765625 L 4.125 -3.09375 L 1.59375 -3.09375 L 1.59375 -0.671875 L 4.5625 -0.671875 L 4.5625 0 L 0.859375 0 Z M 0.859375 -6.71875" transform="translate(332.934 239.967)"/></g></g></g><g><g><g><path d="M 2.28125 -6.0625 L 1.59375 -6.0625 L 1.59375 -3.109375 L 2.28125 -3.109375 C 2.457031 -3.109375 2.585938 -3.109375 2.671875 -3.109375 C 2.753906 -3.117188 2.847656 -3.128906 2.953125 -3.140625 C 3.066406 -3.160156 3.171875 -3.1875 3.265625 -3.21875 C 3.546875 -3.320312 3.757812 -3.5 3.90625 -3.75 C 4.050781 -4.007812 4.125 -4.285156 4.125 -4.578125 C 4.125 -4.878906 4.050781 -5.15625 3.90625 -5.40625 C 3.757812 -5.664062 3.546875 -5.847656 3.265625 -5.953125 C 3.171875 -5.984375 3.066406 -6.003906 2.953125 -6.015625 C 2.847656 -6.035156 2.753906 -6.046875 2.671875 -6.046875 C 2.585938 -6.054688 2.457031 -6.0625 2.28125 -6.0625 Z M 2.28125 -6.71875 C 2.738281 -6.71875 3.078125 -6.691406 3.296875 -6.640625 C 3.785156 -6.523438 4.171875 -6.273438 4.453125 -5.890625 C 4.734375 -5.515625 4.875 -5.078125 4.875 -4.578125 C 4.875 -4.085938 4.734375 -3.648438 4.453125 -3.265625 C 4.171875 -2.890625 3.785156 -2.644531 3.296875 -2.53125 C 3.078125 -2.476562 2.738281 -2.453125 2.28125 -2.453125 L 1.59375 -2.453125 L 1.59375 0 L 0.859375 0 L 0.859375 -6.71875 Z M 2.28125 -6.71875" transform="translate(341.744 239.967)"/></g></g></g><g><g><g><path d="M 0.859375 -6.71875 L 1.59375 -6.71875 L 1.59375 -0.671875 L 4.265625 -0.671875 L 4.265625 0 L 0.859375 0 Z M 0.859375 -6.71875" transform="translate(350.678 239.967)"/></g></g></g><g><g><g><path d="M 3.9375 -2.28125 L 2.828125 -5.71875 L 1.703125 -2.28125 Z M 2.46875 -6.71875 L 3.171875 -6.71875 L 5.453125 0 L 4.6875 0 L 4.15625 -1.625 L 1.484375 -1.625 L 0.96875 0 L 0.1875 0 Z M 2.46875 -6.71875" transform="translate(358.919 239.967)"/></g></g></g><g><g><g><path d="M 4.546875 -6.71875 L 5.28125 -6.71875 L 5.28125 0 L 4.546875 0 L 1.59375 -5.390625 L 1.59375 0 L 0.859375 0 L 0.859375 -6.71875 L 1.59375 -6.71875 L 4.546875 -1.328125 Z M 4.546875 -6.71875" transform="translate(368.156 239.967)"/></g></g></g><g><g><g><path d="M 0.28125 -6.71875 L 4.6875 -6.71875 L 4.6875 -6.0625 L 2.859375 -6.0625 L 2.859375 0 L 2.109375 0 L 2.109375 -6.0625 L 0.28125 -6.0625 Z M 0.28125 -6.71875" transform="translate(377.888 239.967)"/></g></g></g><g><g><g><path d="M 3.9375 -2.28125 L 2.828125 -5.71875 L 1.703125 -2.28125 Z M 2.46875 -6.71875 L 3.171875 -6.71875 L 5.453125 0 L 4.6875 0 L 4.15625 -1.625 L 1.484375 -1.625 L 0.96875 0 L 0.1875 0 Z M 2.46875 -6.71875" transform="translate(386.451 239.967)"/></g></g></g><g><g><g><path d="M 0.40625 -0.546875 L 0.71875 -1.140625 C 1.375 -0.765625 1.953125 -0.578125 2.453125 -0.578125 C 2.648438 -0.578125 2.828125 -0.601562 2.984375 -0.65625 C 3.140625 -0.707031 3.265625 -0.773438 3.359375 -0.859375 C 3.453125 -0.953125 3.523438 -1.054688 3.578125 -1.171875 C 3.640625 -1.285156 3.679688 -1.394531 3.703125 -1.5 C 3.734375 -1.613281 3.75 -1.726562 3.75 -1.84375 C 3.75 -2.09375 3.6875 -2.316406 3.5625 -2.515625 C 3.445312 -2.722656 3.257812 -2.875 3 -2.96875 C 2.875 -3.019531 2.671875 -3.070312 2.390625 -3.125 C 2.117188 -3.1875 1.914062 -3.238281 1.78125 -3.28125 C 1.375 -3.425781 1.066406 -3.648438 0.859375 -3.953125 C 0.648438 -4.265625 0.546875 -4.613281 0.546875 -5 C 0.546875 -5.507812 0.710938 -5.9375 1.046875 -6.28125 C 1.390625 -6.632812 1.859375 -6.8125 2.453125 -6.8125 C 2.972656 -6.8125 3.5625 -6.648438 4.21875 -6.328125 L 3.9375 -5.71875 C 3.351562 -6 2.859375 -6.140625 2.453125 -6.140625 C 2.066406 -6.140625 1.773438 -6.03125 1.578125 -5.8125 C 1.378906 -5.59375 1.28125 -5.320312 1.28125 -5 C 1.28125 -4.757812 1.34375 -4.535156 1.46875 -4.328125 C 1.59375 -4.128906 1.785156 -3.988281 2.046875 -3.90625 C 2.160156 -3.863281 2.359375 -3.8125 2.640625 -3.75 C 2.921875 -3.695312 3.140625 -3.644531 3.296875 -3.59375 C 3.691406 -3.4375 3.988281 -3.203125 4.1875 -2.890625 C 4.382812 -2.585938 4.484375 -2.238281 4.484375 -1.84375 C 4.484375 -1.582031 4.4375 -1.335938 4.34375 -1.109375 C 4.257812 -0.878906 4.132812 -0.675781 3.96875 -0.5 C 3.8125 -0.320312 3.597656 -0.175781 3.328125 -0.0625 C 3.066406 0.0390625 2.773438 0.09375 2.453125 0.09375 C 2.078125 0.09375 1.726562 0.0351562 1.40625 -0.078125 C 1.082031 -0.191406 0.75 -0.347656 0.40625 -0.546875 Z M 0.40625 -0.546875" transform="translate(395.689 239.967)"/></g></g></g><g><g><g><path d="M 0.703125 -16.671875 L 11.625 -16.671875 L 11.625 -15.015625 L 7.078125 -15.015625 L 7.078125 0 L 5.25 0 L 5.25 -15.015625 L 0.703125 -15.015625 Z M 0.703125 -16.671875" transform="translate(280.374 184.165)"/></g></g></g><g><g><g><path d="M 2.125 -16.65625 L 11.296875 -16.65625 L 11.296875 -15.015625 L 3.953125 -15.015625 L 3.953125 -9.3125 L 10.234375 -9.3125 L 10.234375 -7.671875 L 3.953125 -7.671875 L 3.953125 -1.640625 L 11.296875 -1.640625 L 11.296875 0 L 2.125 0 Z M 2.125 -16.65625" transform="translate(301.599 184.165)"/></g></g></g><g><g><g><path d="M 5.96875 -16.65625 C 6.507812 -16.65625 6.910156 -16.648438 7.171875 -16.640625 C 7.429688 -16.628906 7.738281 -16.59375 8.09375 -16.53125 C 8.457031 -16.46875 8.804688 -16.363281 9.140625 -16.21875 C 10.023438 -15.863281 10.734375 -15.269531 11.265625 -14.4375 C 11.804688 -13.613281 12.078125 -12.664062 12.078125 -11.59375 C 12.078125 -10.519531 11.804688 -9.566406 11.265625 -8.734375 C 10.722656 -7.910156 10.003906 -7.320312 9.109375 -6.96875 L 12.359375 0 L 10.375 0 L 7.390625 -6.546875 L 3.953125 -6.546875 L 3.953125 0 L 2.125 0 L 2.125 -16.65625 Z M 5.96875 -15.015625 L 3.953125 -15.015625 L 3.953125 -8.1875 L 5.96875 -8.1875 C 6.394531 -8.1875 6.710938 -8.191406 6.921875 -8.203125 C 7.128906 -8.210938 7.367188 -8.238281 7.640625 -8.28125 C 7.910156 -8.320312 8.148438 -8.382812 8.359375 -8.46875 C 8.710938 -8.613281 9.015625 -8.8125 9.265625 -9.0625 C 9.523438 -9.320312 9.722656 -9.601562 9.859375 -9.90625 C 9.992188 -10.207031 10.085938 -10.492188 10.140625 -10.765625 C 10.203125 -11.046875 10.234375 -11.320312 10.234375 -11.59375 C 10.234375 -11.875 10.203125 -12.148438 10.140625 -12.421875 C 10.085938 -12.703125 9.992188 -12.988281 9.859375 -13.28125 C 9.722656 -13.582031 9.523438 -13.859375 9.265625 -14.109375 C 9.015625 -14.367188 8.710938 -14.578125 8.359375 -14.734375 C 8.148438 -14.816406 7.910156 -14.878906 7.640625 -14.921875 C 7.367188 -14.960938 7.128906 -14.988281 6.921875 -15 C 6.710938 -15.007812 6.394531 -15.015625 5.96875 -15.015625 Z M 5.96875 -15.015625" transform="translate(323.435 184.165)"/></g></g></g><g><g><g><path d="M 5.96875 -16.65625 C 6.507812 -16.65625 6.910156 -16.648438 7.171875 -16.640625 C 7.429688 -16.628906 7.738281 -16.59375 8.09375 -16.53125 C 8.457031 -16.46875 8.804688 -16.363281 9.140625 -16.21875 C 10.023438 -15.863281 10.734375 -15.269531 11.265625 -14.4375 C 11.804688 -13.613281 12.078125 -12.664062 12.078125 -11.59375 C 12.078125 -10.519531 11.804688 -9.566406 11.265625 -8.734375 C 10.722656 -7.910156 10.003906 -7.320312 9.109375 -6.96875 L 12.359375 0 L 10.375 0 L 7.390625 -6.546875 L 3.953125 -6.546875 L 3.953125 0 L 2.125 0 L 2.125 -16.65625 Z M 5.96875 -15.015625 L 3.953125 -15.015625 L 3.953125 -8.1875 L 5.96875 -8.1875 C 6.394531 -8.1875 6.710938 -8.191406 6.921875 -8.203125 C 7.128906 -8.210938 7.367188 -8.238281 7.640625 -8.28125 C 7.910156 -8.320312 8.148438 -8.382812 8.359375 -8.46875 C 8.710938 -8.613281 9.015625 -8.8125 9.265625 -9.0625 C 9.523438 -9.320312 9.722656 -9.601562 9.859375 -9.90625 C 9.992188 -10.207031 10.085938 -10.492188 10.140625 -10.765625 C 10.203125 -11.046875 10.234375 -11.320312 10.234375 -11.59375 C 10.234375 -11.875 10.203125 -12.148438 10.140625 -12.421875 C 10.085938 -12.703125 9.992188 -12.988281 9.859375 -13.28125 C 9.722656 -13.582031 9.523438 -13.859375 9.265625 -14.109375 C 9.015625 -14.367188 8.710938 -14.578125 8.359375 -14.734375 C 8.148438 -14.816406 7.910156 -14.878906 7.640625 -14.921875 C 7.367188 -14.960938 7.128906 -14.988281 6.921875 -15 C 6.710938 -15.007812 6.394531 -15.015625 5.96875 -15.015625 Z M 5.96875 -15.015625" transform="translate(345.754 184.165)"/></g></g></g><g><g><g><path d="M 9.765625 -5.671875 L 7 -14.171875 L 4.234375 -5.671875 Z M 6.125 -16.65625 L 7.875 -16.65625 L 13.53125 0 L 11.609375 0 L 10.3125 -4.03125 L 3.6875 -4.03125 L 2.390625 0 L 0.46875 0 Z M 6.125 -16.65625" transform="translate(368.073 184.165)"/></g></g></g><g><g><g><path d="M 9.765625 -5.671875 L 7 -14.171875 L 4.234375 -5.671875 Z M 6.125 -16.65625 L 7.875 -16.65625 L 13.53125 0 L 11.609375 0 L 10.3125 -4.03125 L 3.6875 -4.03125 L 2.390625 0 L 0.46875 0 Z M 6.125 -16.65625" transform="translate(262.92 217.855)"/></g></g></g><g><g><g><path d="M 0.703125 -16.671875 L 11.625 -16.671875 L 11.625 -15.015625 L 7.078125 -15.015625 L 7.078125 0 L 5.25 0 L 5.25 -15.015625 L 0.703125 -15.015625 Z M 0.703125 -16.671875" transform="translate(285.816 217.855)"/></g></g></g><g><g><g><path d="M 2.125 -16.65625 L 11.296875 -16.65625 L 11.296875 -15.015625 L 3.953125 -15.015625 L 3.953125 -9.3125 L 10.234375 -9.3125 L 10.234375 -7.671875 L 3.953125 -7.671875 L 3.953125 -1.640625 L 11.296875 -1.640625 L 11.296875 0 L 2.125 0 Z M 2.125 -16.65625" transform="translate(307.04 217.855)"/></g></g></g><g><g><g><path d="M 2.125 -16.65625 L 3.953125 -16.65625 L 3.953125 -1.640625 L 10.59375 -1.640625 L 10.59375 0 L 2.125 0 Z M 2.125 -16.65625" transform="translate(328.877 217.855)"/></g></g></g><g><g><g><path d="M 3.953125 -16.65625 L 3.953125 0 L 2.125 0 L 2.125 -16.65625 Z M 3.953125 -16.65625" transform="translate(349.302 217.855)"/></g></g></g><g><g><g><path d="M 2.125 -16.65625 L 11.296875 -16.65625 L 11.296875 -15.015625 L 3.953125 -15.015625 L 3.953125 -9.3125 L 10.234375 -9.3125 L 10.234375 -7.671875 L 3.953125 -7.671875 L 3.953125 -1.640625 L 11.296875 -1.640625 L 11.296875 0 L 2.125 0 Z M 2.125 -16.65625" transform="translate(364.266 217.855)"/></g></g></g><g><g><g><path d="M 5.96875 -16.65625 C 6.507812 -16.65625 6.910156 -16.648438 7.171875 -16.640625 C 7.429688 -16.628906 7.738281 -16.59375 8.09375 -16.53125 C 8.457031 -16.46875 8.804688 -16.363281 9.140625 -16.21875 C 10.023438 -15.863281 10.734375 -15.269531 11.265625 -14.4375 C 11.804688 -13.613281 12.078125 -12.664062 12.078125 -11.59375 C 12.078125 -10.519531 11.804688 -9.566406 11.265625 -8.734375 C 10.722656 -7.910156 10.003906 -7.320312 9.109375 -6.96875 L 12.359375 0 L 10.375 0 L 7.390625 -6.546875 L 3.953125 -6.546875 L 3.953125 0 L 2.125 0 L 2.125 -16.65625 Z M 5.96875 -15.015625 L 3.953125 -15.015625 L 3.953125 -8.1875 L 5.96875 -8.1875 C 6.394531 -8.1875 6.710938 -8.191406 6.921875 -8.203125 C 7.128906 -8.210938 7.367188 -8.238281 7.640625 -8.28125 C 7.910156 -8.320312 8.148438 -8.382812 8.359375 -8.46875 C 8.710938 -8.613281 9.015625 -8.8125 9.265625 -9.0625 C 9.523438 -9.320312 9.722656 -9.601562 9.859375 -9.90625 C 9.992188 -10.207031 10.085938 -10.492188 10.140625 -10.765625 C 10.203125 -11.046875 10.234375 -11.320312 10.234375 -11.59375 C 10.234375 -11.875 10.203125 -12.148438 10.140625 -12.421875 C 10.085938 -12.703125 9.992188 -12.988281 9.859375 -13.28125 C 9.722656 -13.582031 9.523438 -13.859375 9.265625 -14.109375 C 9.015625 -14.367188 8.710938 -14.578125 8.359375 -14.734375 C 8.148438 -14.816406 7.910156 -14.878906 7.640625 -14.921875 C 7.367188 -14.960938 7.128906 -14.988281 6.921875 -15 C 6.710938 -15.007812 6.394531 -15.015625 5.96875 -15.015625 Z M 5.96875 -15.015625" transform="translate(386.103 217.855)"/></g></g></g></svg>