<svg width="253" height="98" viewBox="0 0 253 98" fill="none" xmlns="http://www.w3.org/2000/svg">
<path d="M86.2026 22.9624C80.187 22.853 74.4682 24.4976 69.6088 28.1616C67.1791 29.9937 65.1987 32.3491 62.6948 34.0679C60.6401 35.4897 57.9838 35.7866 56.0424 37.2827C54.3979 38.5562 53.6479 40.6851 53.0151 42.5952C51.7065 46.5952 50.9565 49.5093 48.3041 52.9116C47.8549 53.5132 47.4799 54.0718 47.144 54.6343C49.1245 49.6226 50.9956 43.8647 50.769 38.4429C50.7338 37.1733 50.3979 36.1616 50.2495 34.8921C49.7612 31.564 50.062 29.2827 50.4331 26.0679C50.6596 23.9351 50.8471 21.9546 50.3237 19.8218C49.1635 15.2593 45.8002 12.6069 41.9135 10.3608C38.9604 8.68116 36.269 7.07178 33.7651 4.71631C31.9331 2.99756 30.3237 1.35303 28.1206 0.0444375C27.8198 -0.107906 27.4487 0.153812 27.5581 0.48975C29.019 5.38819 29.0932 9.80225 27.7104 14.7007C26.9604 17.353 25.7651 19.9702 25.5776 22.7749C25.2065 28.1968 28.7924 31.3765 31.3706 35.7124C33.1284 38.7046 32.6791 41.8452 32.5698 44.9116C31.7104 43.939 30.9995 43.8647 29.5776 43.4897C27.3354 43.8647 25.1674 43.4155 23.1127 42.0718C22.6635 41.6226 22.2143 41.1733 21.8041 40.6851C20.6831 39.6773 19.9331 38.2944 18.7026 37.3569C17.019 36.0483 15.2612 35.6382 13.1713 35.4155C8.8354 34.9273 4.68696 34.7788 0.460398 33.5835C0.0502423 33.4702 -0.172415 34.0327 0.163523 34.2944C2.62837 35.939 4.94477 37.5835 6.03071 40.6108C6.66743 42.4429 6.55415 44.4624 6.89009 46.3687C7.1518 47.8648 7.48774 49.3608 8.34712 50.6343C10.8901 54.2983 15.8237 54.3335 19.4877 56.0522C22.5502 57.5132 22.8862 59.0835 24.1948 62.0366C24.3471 62.4116 24.3081 63.1226 24.6088 63.4194C25.4291 64.4312 25.9916 64.5054 27.1127 64.9155C29.4643 65.8491 32.3432 65.5132 34.812 66.3374C38.6596 67.5718 41.9487 69.7007 44.8666 72.4702C42.8081 72.4702 40.7924 72.4312 38.7338 72.4312C38.2495 72.4312 38.2495 73.1773 38.7338 73.1773C41.8002 73.2163 44.8666 73.2163 47.894 73.2554C50.2846 73.2554 55.2182 72.2827 56.4877 74.7515C57.2729 76.2827 55.7416 81.9273 55.5541 83.7983C55.144 87.6499 55.5541 93.7085 51.144 95.6499C48.1909 96.9585 42.6245 96.2866 39.5932 95.8023C34.9213 95.0523 33.6909 92.2124 33.2416 87.6851C32.9409 84.7319 32.8315 81.7788 32.8315 78.8257C32.8315 74.7515 33.0932 72.1694 37.7651 72.1694C38.2495 72.1694 38.2495 71.4233 37.7651 71.4233C36.4916 71.4233 33.5776 70.7866 32.5698 71.7944C31.1088 73.2554 32.0463 79.5718 32.0815 81.5171C32.1948 86.4898 31.1088 94.4155 36.8666 96.064C41.0541 97.2593 51.4799 98.7905 54.5463 94.6421C55.8901 92.8101 55.7065 89.5171 55.8901 87.4624C56.4135 82.6382 56.9018 77.814 57.4252 72.9937C57.4604 72.7671 57.2377 72.6187 57.0502 72.6187C53.2377 72.5796 49.4252 72.5796 45.6127 72.5444C45.687 72.4312 45.6518 72.2827 45.5385 72.1304C42.8862 69.6265 39.9331 67.5718 36.4916 66.2241C34.5112 65.439 32.5698 65.1773 30.5112 64.6538C27.8979 63.9819 26.2143 62.2983 24.644 60.1304C23.1479 58.0718 22.4018 56.5796 19.8237 55.3804C13.8784 52.6499 8.57368 53.0249 7.45259 44.9507C7.03852 42.0718 6.7768 39.3765 4.79634 37.0952C4.16352 36.3882 2.29243 34.5913 1.84321 34.853C2.44087 34.5171 6.03071 35.7124 6.85102 35.8257C9.65571 36.2007 12.3862 36.0483 15.1518 36.7983C18.3276 37.6577 19.4877 39.603 21.6557 41.8101C22.5151 42.6694 23.4487 43.6421 24.6088 44.0874C26.851 44.9507 30.5502 43.6421 32.1557 45.6968C32.2299 45.8101 32.3823 45.8452 32.4916 45.8452C32.4565 48.0523 32.7182 50.2202 34.2495 52.2788C36.1948 54.8569 38.812 56.9897 40.7924 59.5679C42.5112 61.7749 44.0073 64.0913 45.351 66.5249C45.4643 68.021 45.5737 69.478 45.687 70.9741C45.726 71.4585 46.4721 71.4585 46.437 70.9741C46.3588 70.0366 46.3237 69.103 46.2495 68.1694L46.9213 69.5132C47.0346 69.7398 47.2573 69.7398 47.4057 69.6655C47.2963 69.9624 47.1831 70.2241 47.1088 70.5249C46.9213 70.9741 47.6674 71.1968 47.8549 70.7124C50.2104 64.3921 52.7885 58.1108 56.4526 52.3882C57.0112 51.4937 57.6127 50.6343 58.2456 49.771C58.394 49.8843 58.5815 49.9233 58.7338 49.771C61.312 47.4546 63.4409 44.9858 65.312 42.0718C65.5737 41.6968 65.0112 41.3218 64.7143 41.6226C56.3041 48.9858 51.4799 58.896 47.5932 69.1773V69.1421C47.1088 68.1694 46.6206 67.2358 46.0971 66.2983C45.4995 58.7476 44.5659 51.2319 43.2221 43.7905C41.8393 36.1265 39.9682 28.7202 35.2963 22.3296C35.1479 22.103 34.8471 22.1421 34.6987 22.2515C34.5854 22.0288 34.476 21.8022 34.3237 21.5796C34.5854 21.9897 35.2612 21.6187 34.9995 21.2046C34.9604 21.1694 34.9213 21.1304 34.9213 21.0562C34.812 20.9077 34.6596 20.8335 34.476 20.8687C34.3979 20.8687 34.3627 20.9077 34.2885 20.9077C34.101 20.9429 34.0268 21.1304 34.0268 21.2788C33.726 23.5601 35.1831 26.6655 36.0424 28.7593C37.2416 31.6773 38.8471 34.3296 40.7534 36.8335C40.8276 36.9468 40.9409 36.9858 41.0151 36.9858C41.6127 39.2671 42.062 41.6226 42.5112 43.939C43.7456 50.8179 44.6049 57.7358 45.2377 64.6929C43.519 61.7749 41.5385 58.9702 39.2963 56.4272C38.3979 55.3804 37.3901 54.4468 36.4565 53.4351C33.7651 50.521 33.5034 48.2007 33.5776 44.2007C33.6166 42.4429 34.101 40.8726 33.6909 39.1147C32.7534 34.8921 28.9799 32.2007 27.3745 28.3491C24.644 21.8022 28.9799 16.0093 29.4643 9.50147C29.5424 8.41944 28.3823 2.54834 28.8315 2.02491C29.726 1.01319 32.9799 5.05225 34.2885 6.25147C38.1752 9.72803 43.5581 11.2241 47.0346 15.1851C52.0034 20.8687 48.5268 27.564 49.3862 34.1421C50.3588 41.5835 49.0151 48.1265 46.2104 55.0835C46.062 55.4546 46.4721 55.6421 46.7729 55.4937C45.1284 59.0835 45.7612 62.5601 47.1831 66.8608C47.3315 67.3101 48.0815 67.1226 47.9291 66.6733C46.3237 61.814 45.7612 57.8882 48.9409 53.4351C50.1362 51.7554 51.4057 50.4468 52.1909 48.4272C52.9018 46.5952 53.2377 44.6499 53.8354 42.7788C55.1831 38.6655 56.976 37.8804 60.5268 36.2749C64.7495 34.3687 67.5893 30.4429 71.4018 27.8999C74.019 26.1421 77.0112 24.8687 80.0737 24.2358C80.7846 24.0835 84.5229 23.2632 84.8198 23.9351C85.0073 24.3452 82.8393 26.1421 82.6518 26.3296C79.4018 29.6929 77.9799 32.9468 76.9721 37.4702C76.1127 41.2866 74.5815 44.2749 71.0659 46.2593C69.1596 47.3413 66.769 47.5288 65.0502 48.8765C62.0581 51.2319 63.4057 55.2671 62.3198 58.521C60.3002 64.6929 53.0151 66.0757 48.601 70.1499C48.2299 70.4858 48.7885 71.0093 49.1245 70.6733C52.8627 67.2358 58.3588 65.8882 61.5737 61.8882C62.6948 60.5054 63.2924 59.1187 63.5541 57.3647C63.7416 56.1304 63.4057 54.7827 63.7026 53.5874C64.937 48.2788 66.9565 48.9507 70.1323 47.5288C73.1206 46.1812 75.7026 43.9038 76.9331 40.7983C78.1323 37.8062 77.9057 34.5562 79.476 31.6382C81.1948 28.4585 83.9604 25.9546 86.6166 23.5601C86.726 23.4116 86.5034 23.0015 86.2026 22.9624ZM62.8823 44.3491C63.4057 43.7905 63.8159 43.3413 63.9643 43.1929C63.7768 43.4155 63.1049 44.1655 61.7612 45.7358C61.1635 46.4077 60.562 47.0796 59.8901 47.7163C60.8627 46.5562 61.8706 45.4351 62.8823 44.3491ZM37.3159 29.9194C36.4565 28.0483 36.0424 25.6929 35.2963 23.6733C37.7651 27.3022 39.3706 31.2632 40.5307 35.3765C39.3354 33.6577 38.2495 31.8608 37.3159 29.9194ZM30.0659 55.6421C27.6362 53.5132 25.1284 51.3413 22.3627 49.6616C22.7026 49.9585 22.3276 50.5952 21.9526 50.2944C20.644 49.3257 19.3002 48.353 17.9916 47.4155C17.5815 47.1187 17.9174 46.5562 18.3666 46.7437C24.1206 49.2866 28.644 53.3608 33.2768 57.5132C37.351 61.1773 43.2963 64.8804 45.3901 70.1499C45.5737 70.5991 44.8276 70.7866 44.6401 70.3374C42.3979 64.6538 34.5502 59.5679 30.0659 55.6421Z" fill="#131515"/>
<path d="M117.635 88.0192H122.041V88.6754H120.213V94.7379H119.463V88.6754H117.635V88.0192Z" fill="#131515"/>
<path d="M127.511 88.0192V94.7379H126.777V88.0192H127.511Z" fill="#131515"/>
<path d="M132.815 88.0192H136.518V88.6754H133.549V90.9723H136.08V91.6442H133.549V94.066H136.518V94.7379H132.815V88.0192Z" fill="#131515"/>
<path d="M145.312 88.0192H146.047V94.7379H145.312L142.359 89.3473V94.7379H141.625V88.0192H142.359L145.312 93.4098V88.0192Z" fill="#131515"/>
<path d="M152.091 88.6754V94.066H153.06C153.216 94.066 153.341 94.066 153.435 94.066C153.529 94.066 153.642 94.0582 153.779 94.0348C153.923 94.0035 154.036 93.9645 154.122 93.9098C154.236 93.8473 154.333 93.7692 154.419 93.6754C154.501 93.5817 154.568 93.4879 154.622 93.3942C154.685 93.3004 154.732 93.1832 154.763 93.0348C154.802 92.8903 154.833 92.7653 154.857 92.6598C154.876 92.5582 154.888 92.4176 154.888 92.2379C154.896 92.0621 154.904 91.9215 154.904 91.816C154.911 91.7145 154.919 91.566 154.919 91.3785C154.919 91.1832 154.911 91.0348 154.904 90.941C154.904 90.8395 154.896 90.6989 154.888 90.5192C154.888 90.3434 154.876 90.2028 154.857 90.0973C154.833 89.9957 154.802 89.8707 154.763 89.7223C154.732 89.5778 154.685 89.4567 154.622 89.3629C154.568 89.2692 154.501 89.1754 154.419 89.0817C154.333 88.9879 154.236 88.9098 154.122 88.8473C154.036 88.7965 153.923 88.7614 153.779 88.7379C153.642 88.7067 153.529 88.691 153.435 88.691C153.341 88.6832 153.216 88.6754 153.06 88.6754H152.091ZM151.357 88.0192H153.06C153.529 88.0192 153.888 88.0582 154.138 88.1285C154.427 88.2145 154.677 88.359 154.888 88.566C155.095 88.7653 155.255 88.9957 155.372 89.2535C155.454 89.4528 155.517 89.6871 155.56 89.9567C155.611 90.2301 155.638 90.4567 155.638 90.6442C155.646 90.8239 155.654 91.066 155.654 91.3785C155.654 91.691 155.646 91.941 155.638 92.1285C155.638 92.3082 155.611 92.5309 155.56 92.8004C155.517 93.0739 155.454 93.3082 155.372 93.5035C155.255 93.7653 155.095 93.9996 154.888 94.2067C154.677 94.4059 154.427 94.5465 154.138 94.6285C153.888 94.7028 153.529 94.7379 153.06 94.7379H151.357V88.0192Z" fill="#131515"/>
<path d="M163.8 92.4567L162.69 89.0192L161.565 92.4567H163.8ZM162.331 88.0192H163.034L165.315 94.7379H164.55L164.019 93.1129H161.347L160.831 94.7379H160.05L162.331 88.0192Z" fill="#131515"/>
<path d="M177.083 88.6754V94.066H178.052C178.208 94.066 178.333 94.066 178.427 94.066C178.521 94.066 178.634 94.0582 178.771 94.0348C178.915 94.0035 179.028 93.9645 179.114 93.9098C179.228 93.8473 179.325 93.7692 179.411 93.6754C179.493 93.5817 179.56 93.4879 179.614 93.3942C179.677 93.3004 179.724 93.1832 179.755 93.0348C179.794 92.8903 179.825 92.7653 179.849 92.6598C179.868 92.5582 179.88 92.4176 179.88 92.2379C179.888 92.0621 179.896 91.9215 179.896 91.816C179.903 91.7145 179.911 91.566 179.911 91.3785C179.911 91.1832 179.903 91.0348 179.896 90.941C179.896 90.8395 179.888 90.6989 179.88 90.5192C179.88 90.3434 179.868 90.2028 179.849 90.0973C179.825 89.9957 179.794 89.8707 179.755 89.7223C179.724 89.5778 179.677 89.4567 179.614 89.3629C179.56 89.2692 179.493 89.1754 179.411 89.0817C179.325 88.9879 179.228 88.9098 179.114 88.8473C179.028 88.7965 178.915 88.7614 178.771 88.7379C178.634 88.7067 178.521 88.691 178.427 88.691C178.333 88.6832 178.208 88.6754 178.052 88.6754H177.083ZM176.349 88.0192H178.052C178.521 88.0192 178.88 88.0582 179.13 88.1285C179.419 88.2145 179.669 88.359 179.88 88.566C180.087 88.7653 180.247 88.9957 180.364 89.2535C180.446 89.4528 180.509 89.6871 180.552 89.9567C180.603 90.2301 180.63 90.4567 180.63 90.6442C180.638 90.8239 180.646 91.066 180.646 91.3785C180.646 91.691 180.638 91.941 180.63 92.1285C180.63 92.3082 180.603 92.5309 180.552 92.8004C180.509 93.0739 180.446 93.3082 180.364 93.5035C180.247 93.7653 180.087 93.9996 179.88 94.2067C179.669 94.4059 179.419 94.5465 179.13 94.6285C178.88 94.7028 178.521 94.7379 178.052 94.7379H176.349V88.0192Z" fill="#131515"/>
<path d="M185.715 88.0192H189.418V88.6754H186.449V90.9723H188.98V91.6442H186.449V94.066H189.418V94.7379H185.715V88.0192Z" fill="#131515"/>
<path d="M195.947 88.6754H195.259V91.6285H195.947C196.122 91.6285 196.251 91.6285 196.337 91.6285C196.419 91.6207 196.513 91.609 196.618 91.5973C196.732 91.5778 196.837 91.5504 196.931 91.5192C197.212 91.4176 197.423 91.2379 197.572 90.9879C197.716 90.7301 197.79 90.4528 197.79 90.1598C197.79 89.859 197.716 89.5817 197.572 89.3317C197.423 89.0739 197.212 88.8903 196.931 88.7848C196.837 88.7535 196.732 88.734 196.618 88.7223C196.513 88.7028 196.419 88.691 196.337 88.691C196.251 88.6832 196.122 88.6754 195.947 88.6754ZM195.947 88.0192C196.404 88.0192 196.743 88.0465 196.962 88.0973C197.45 88.2145 197.837 88.4645 198.118 88.8473C198.4 89.2223 198.54 89.6598 198.54 90.1598C198.54 90.652 198.4 91.0895 198.118 91.4723C197.837 91.8473 197.45 92.0934 196.962 92.2067C196.743 92.2614 196.404 92.2848 195.947 92.2848H195.259V94.7379H194.525V88.0192H195.947Z" fill="#131515"/>
<path d="M203.459 88.0192H204.193V94.066H206.865V94.7379H203.459V88.0192Z" fill="#131515"/>
<path d="M214.778 92.4567L213.668 89.0192L212.543 92.4567H214.778ZM213.309 88.0192H214.012L216.293 94.7379H215.528L214.997 93.1129H212.325L211.809 94.7379H211.028L213.309 88.0192Z" fill="#131515"/>
<path d="M224.624 88.0192H225.359V94.7379H224.624L221.671 89.3473V94.7379H220.937V88.0192H221.671L224.624 93.4098V88.0192Z" fill="#131515"/>
<path d="M230.091 88.0192H234.497V88.6754H232.669V94.7379H231.919V88.6754H230.091V88.0192Z" fill="#131515"/>
<path d="M242.31 92.4567L241.2 89.0192L240.075 92.4567H242.31ZM240.841 88.0192H241.544L243.825 94.7379H243.06L242.529 93.1129H239.857L239.341 94.7379H238.56L240.841 88.0192Z" fill="#131515"/>
<path d="M248.017 94.191L248.329 93.5973C248.985 93.9723 249.563 94.1598 250.063 94.1598C250.259 94.1598 250.438 94.1364 250.595 94.0817C250.751 94.0309 250.876 93.9645 250.97 93.8785C251.063 93.7848 251.134 93.6832 251.188 93.566C251.251 93.4528 251.29 93.3434 251.313 93.2379C251.345 93.1246 251.36 93.0114 251.36 92.8942C251.36 92.6442 251.298 92.4215 251.173 92.2223C251.056 92.0153 250.868 91.8629 250.61 91.7692C250.485 91.7184 250.282 91.6676 250.001 91.6129C249.728 91.5504 249.524 91.4996 249.392 91.4567C248.985 91.3121 248.677 91.0895 248.47 90.7848C248.259 90.4723 248.157 90.1246 248.157 89.7379C248.157 89.2301 248.321 88.8004 248.657 88.4567C249.001 88.1051 249.47 87.9254 250.063 87.9254C250.583 87.9254 251.173 88.0895 251.829 88.4098L251.548 89.0192C250.962 88.7379 250.47 88.5973 250.063 88.5973C249.677 88.5973 249.384 88.7067 249.188 88.9254C248.989 89.1442 248.892 89.4176 248.892 89.7379C248.892 89.9801 248.954 90.2028 249.079 90.4098C249.204 90.609 249.396 90.7496 249.657 90.8317C249.771 90.8746 249.97 90.9254 250.251 90.9879C250.532 91.0426 250.751 91.0934 250.907 91.1442C251.302 91.3004 251.599 91.5348 251.798 91.8473C251.993 92.152 252.095 92.4996 252.095 92.8942C252.095 93.1559 252.048 93.402 251.954 93.6285C251.868 93.859 251.743 94.0621 251.579 94.2379C251.423 94.4176 251.208 94.5621 250.938 94.6754C250.677 94.777 250.384 94.8317 250.063 94.8317C249.688 94.8317 249.337 94.7731 249.017 94.6598C248.692 94.5465 248.36 94.3903 248.017 94.191Z" fill="#131515"/>
<path d="M132.999 22.2631H143.92V23.9193H139.374V38.9349H137.545V23.9193H132.999V22.2631Z" fill="#131515"/>
<path d="M155.645 22.2787H164.817V23.9193H157.473V29.6224H163.755V31.2631H157.473V37.2943H164.817V38.9349H155.645V22.2787Z" fill="#131515"/>
<path d="M181.325 22.2787C181.864 22.2787 182.266 22.2865 182.528 22.2943C182.786 22.306 183.095 22.3412 183.45 22.4037C183.813 22.4662 184.161 22.5717 184.497 22.7162C185.38 23.0717 186.091 23.6654 186.622 24.4974C187.161 25.3217 187.434 26.2709 187.434 27.3412C187.434 28.4154 187.161 29.3685 186.622 30.2006C186.079 31.0248 185.36 31.6146 184.466 31.9662L187.716 38.9349H185.731L182.747 32.3881H179.309V38.9349H177.481V22.2787H181.325ZM181.325 23.9193H179.309V30.7474H181.325C181.751 30.7474 182.067 30.7435 182.278 30.7318C182.485 30.724 182.724 30.6967 182.997 30.6537C183.266 30.6146 183.505 30.5521 183.716 30.4662C184.067 30.3217 184.372 30.1224 184.622 29.8724C184.88 29.6146 185.079 29.3334 185.216 29.0287C185.349 28.7279 185.442 28.4427 185.497 28.1693C185.559 27.8881 185.591 27.6146 185.591 27.3412C185.591 27.0599 185.559 26.7865 185.497 26.5131C185.442 26.2318 185.349 25.9467 185.216 25.6537C185.079 25.3529 184.88 25.0756 184.622 24.8256C184.372 24.5677 184.067 24.3568 183.716 24.2006C183.505 24.1185 183.266 24.056 182.997 24.0131C182.724 23.974 182.485 23.9467 182.278 23.9349C182.067 23.9271 181.751 23.9193 181.325 23.9193Z" fill="#131515"/>
<path d="M203.644 22.2787C204.183 22.2787 204.585 22.2865 204.847 22.2943C205.105 22.306 205.414 22.3412 205.769 22.4037C206.132 22.4662 206.48 22.5717 206.816 22.7162C207.699 23.0717 208.41 23.6654 208.941 24.4974C209.48 25.3217 209.753 26.2709 209.753 27.3412C209.753 28.4154 209.48 29.3685 208.941 30.2006C208.398 31.0248 207.679 31.6146 206.785 31.9662L210.035 38.9349H208.05L205.066 32.3881H201.628V38.9349H199.8V22.2787H203.644ZM203.644 23.9193H201.628V30.7474H203.644C204.07 30.7474 204.386 30.7435 204.597 30.7318C204.804 30.724 205.042 30.6967 205.316 30.6537C205.585 30.6146 205.824 30.5521 206.035 30.4662C206.386 30.3217 206.691 30.1224 206.941 29.8724C207.199 29.6146 207.398 29.3334 207.535 29.0287C207.667 28.7279 207.761 28.4427 207.816 28.1693C207.878 27.8881 207.91 27.6146 207.91 27.3412C207.91 27.0599 207.878 26.7865 207.816 26.5131C207.761 26.2318 207.667 25.9467 207.535 25.6537C207.398 25.3529 207.199 25.0756 206.941 24.8256C206.691 24.5677 206.386 24.3568 206.035 24.2006C205.824 24.1185 205.585 24.056 205.316 24.0131C205.042 23.974 204.804 23.9467 204.597 23.9349C204.386 23.9271 204.07 23.9193 203.644 23.9193Z" fill="#131515"/>
<path d="M229.76 33.2631L226.994 24.7631L224.229 33.2631H229.76ZM226.119 22.2787H227.869L233.526 38.9349H231.604L230.307 34.9037H223.682L222.385 38.9349H220.463L226.119 22.2787Z" fill="#131515"/>
<path d="M124.607 66.953L121.841 58.453L119.076 66.953H124.607ZM120.966 55.9686H122.716L128.373 72.6249H126.451L125.154 68.5936H118.529L117.232 72.6249H115.31L120.966 55.9686Z" fill="#131515"/>
<path d="M138.44 55.953H149.362V57.6093H144.815V72.6249H142.987V57.6093H138.44V55.953Z" fill="#131515"/>
<path d="M161.086 55.9686H170.258V57.6093H162.915V63.3124H169.196V64.953H162.915V70.9843H170.258V72.6249H161.086V55.9686Z" fill="#131515"/>
<path d="M182.923 55.9686H184.751V70.9843H191.392V72.6249H182.923V55.9686Z" fill="#131515"/>
<path d="M205.177 55.9686V72.6249H203.348V55.9686H205.177Z" fill="#131515"/>
<path d="M218.312 55.9686H227.484V57.6093H220.14V63.3124H226.422V64.953H220.14V70.9843H227.484V72.6249H218.312V55.9686Z" fill="#131515"/>
<path d="M243.993 55.9686C244.532 55.9686 244.935 55.9764 245.196 55.9843C245.454 55.996 245.763 56.0311 246.118 56.0936C246.481 56.1561 246.829 56.2616 247.165 56.4061C248.048 56.7616 248.759 57.3553 249.29 58.1874C249.829 59.0116 250.103 59.9608 250.103 61.0311C250.103 62.1053 249.829 63.0585 249.29 63.8905C248.747 64.7147 248.028 65.3046 247.134 65.6561L250.384 72.6249H248.399L245.415 66.078H241.978V72.6249H240.149V55.9686H243.993ZM243.993 57.6093H241.978V64.4374H243.993C244.419 64.4374 244.735 64.4335 244.946 64.4218C245.153 64.4139 245.392 64.3866 245.665 64.3436C245.935 64.3046 246.173 64.2421 246.384 64.1561C246.735 64.0116 247.04 63.8124 247.29 63.5624C247.548 63.3046 247.747 63.0233 247.884 62.7186C248.017 62.4178 248.11 62.1327 248.165 61.8593C248.228 61.578 248.259 61.3046 248.259 61.0311C248.259 60.7499 248.228 60.4764 248.165 60.203C248.11 59.9218 248.017 59.6366 247.884 59.3436C247.747 59.0428 247.548 58.7655 247.29 58.5155C247.04 58.2577 246.735 58.0468 246.384 57.8905C246.173 57.8085 245.935 57.746 245.665 57.703C245.392 57.6639 245.153 57.6366 244.946 57.6249C244.735 57.6171 244.419 57.6093 243.993 57.6093Z" fill="#131515"/>
</svg>
