<svg width="64" height="64" viewBox="0 0 64 64" fill="none" xmlns="http://www.w3.org/2000/svg">
<path d="M47.8333 10.8C49.4333 10.8 54.1333 11.0333 55.4667 11.3C58.4425 19.3 54.5 36.2667 47.3 44.8C41.9667 51.4667 31.3 54.3 19.0333 54.3H12.4667C11.9333 42.0333 14.3667 27.9333 19.9667 21.8C26.6333 14.0667 39.4667 10.3 47.8333 10.8ZM47.8333 8.8C33.1667 8.8 6.23333 14.4 10.5 56.2667C13.4333 56.5333 16.3667 56.8 19.0333 56.8C66.7667 56.8 57.1667 9.6 57.1667 9.6C57.1667 9.6 53.4333 8.8 47.8333 8.8ZM51 17C24.3333 17 19.0333 49 19.0333 49C24.9 25.3667 51 17 51 17Z" fill="black"/>
</svg>
