<svg width="1851" height="1852" viewBox="0 0 1851 1852" fill="none" xmlns="http://www.w3.org/2000/svg">
<path d="M925 1.00012C561.243 -3.93388 210.751 230.17 72.774 566.192C-71.344 896.345 3.53799 1306.48 255.636 1563.96C498.1 1824.96 897.586 1920.75 1232.16 1798.63C1578.9 1680.56 1834.88 1340.04 1848.8 973.543C1872.14 613.412 1660.26 254.121 1335.84 97.2501C1208.81 33.8561 1066.95 0.797118 925 1.00012ZM925 101C1284.28 94.7511 1625.98 352.836 1718.75 699.93C1815.78 1026.84 1684.53 1405.34 1402.84 1598.95C1110.23 1814.03 676.3 1798.47 399.977 1562.8C121.563 1340.82 21.904 930.224 164.749 604.618C288.557 303.605 599.338 97.1791 925 101ZM505.375 605.951V1246.05H1344.62V605.95H505.375V605.951ZM691.809 705.955H1158.12C1075.53 756.78 992.923 868.353 910.338 880.527C837.498 822.333 764.653 764.144 691.808 705.955H691.809ZM1244.75 764.828V1146.05H605.254V764.857C711.804 850.01 818.351 935.168 924.906 1020.32C1031.52 935.158 1138.13 849.99 1244.75 764.828V764.828Z" fill="#FAFAFA"/>
</svg>
