<svg width="32" height="32" viewBox="0 0 32 32" fill="none" xmlns="http://www.w3.org/2000/svg">
<circle cx="16" cy="16" r="16" fill="#2AC9AD"/>
<path fill-rule="evenodd" clip-rule="evenodd" d="M20.5823 17.985C20.3328 17.8608 19.1095 17.2625 18.8817 17.1792C18.6539 17.0967 18.4881 17.0558 18.3215 17.3042C18.1557 17.5508 17.6793 18.1092 17.5344 18.2742C17.3887 18.44 17.2438 18.46 16.9952 18.3367C16.7465 18.2117 15.9443 17.9508 14.9939 17.1075C14.2545 16.4509 13.7546 15.64 13.6098 15.3917C13.4649 15.1442 13.5939 15.01 13.7186 14.8867C13.8308 14.7759 13.9673 14.5975 14.0921 14.4534C14.2169 14.3084 14.2579 14.205 14.3408 14.0392C14.4245 13.8742 14.3826 13.73 14.3198 13.6059C14.2579 13.4817 13.7605 12.2625 13.5528 11.7667C13.351 11.2842 13.1459 11.35 12.9935 11.3417C12.8478 11.335 12.682 11.3334 12.5162 11.3334C12.3504 11.3334 12.0808 11.395 11.853 11.6434C11.6244 11.8909 10.9822 12.49 10.9822 13.7092C10.9822 14.9275 11.8731 16.105 11.9979 16.2709C12.1227 16.4358 13.7521 18.9375 16.2482 20.01C16.8428 20.265 17.3058 20.4175 17.6667 20.5308C18.2629 20.72 18.8055 20.6933 19.2342 20.6292C19.7115 20.5583 20.7063 20.03 20.9139 19.4517C21.1208 18.8733 21.1207 18.3775 21.0588 18.2742C20.9968 18.1708 20.831 18.1092 20.5815 17.985H20.5823ZM16.0423 24.1542H16.0389C14.5563 24.1544 13.101 23.7578 11.8254 23.0058L11.524 22.8275L8.39062 23.6458L9.22712 20.6058L9.03035 20.2942C8.20149 18.9811 7.76286 17.4615 7.76512 15.9109C7.76679 11.3692 11.4796 7.6742 16.0456 7.6742C18.2562 7.6742 20.3345 8.53253 21.897 10.0892C22.6676 10.853 23.2785 11.7613 23.6941 12.7616C24.1098 13.7619 24.322 14.8343 24.3186 15.9167C24.3169 20.4583 20.6041 24.1542 16.0423 24.1542V24.1542ZM23.086 8.9067C22.1634 7.98247 21.0657 7.24965 19.8564 6.7507C18.6472 6.25175 17.3505 5.9966 16.0414 6.00003C10.5535 6.00003 6.08541 10.4459 6.08373 15.91C6.0829 17.6567 6.54092 19.3617 7.4126 20.8642L6 26L11.2786 24.6217C12.7388 25.4134 14.3752 25.8283 16.0381 25.8283H16.0423C21.5302 25.8283 25.9983 21.3825 26 15.9175C26.004 14.6152 25.7485 13.3251 25.2484 12.1217C24.7482 10.9183 24.0132 9.82559 23.086 8.9067" fill="#FAFAFA"/>
</svg>
